<?xml version="1.0" standalone="no"?>
<!DOCTYPE svg PUBLIC "-//W3C//DTD SVG 20010904//EN"
 "http://www.w3.org/TR/2001/REC-SVG-20010904/DTD/svg10.dtd">
<svg version="1.0" xmlns="http://www.w3.org/2000/svg"
 width="92.000000pt" height="92.000000pt" viewBox="0 0 92.000000 92.000000"
 preserveAspectRatio="xMidYMid meet">
<metadata>
Created by potrace 1.11, written by Peter Selinger 2001-2013
</metadata>
<g transform="translate(0.000000,92.000000) scale(0.100000,-0.100000)"
fill="#000000" stroke="none">
<path d="M535 900 c-128 -28 -235 -131 -268 -261 -9 -33 -16 -110 -16 -194 -3
-225 -15 -238 -232 -245 -12 0 -15 -16 -15 -95 1 -56 5 -95 11 -96 49 -6 129
-3 168 7 95 24 191 103 219 181 9 24 16 32 28 27 8 -4 40 -16 70 -26 106 -38
233 -7 333 82 77 68 77 69 4 146 l-64 67 -39 -40 c-55 -56 -90 -75 -128 -71
l-34 3 163 170 163 169 -21 31 c-74 105 -226 170 -342 145z m85 -197 c0 -5
-41 -51 -90 -103 l-89 -95 -1 37 c0 65 33 118 93 149 30 16 87 24 87 12z"/>
</g>
</svg>
