<svg xmlns="http://www.w3.org/2000/svg" viewBox="0 0 332.05 220.52"><defs><style>.cls-1{fill:#e6e6e6;}.cls-12,.cls-13,.cls-14,.cls-15,.cls-17,.cls-18,.cls-2,.cls-5,.cls-7,.cls-8{fill:none;stroke-miterlimit:10;}.cls-2,.cls-7,.cls-8{stroke:#501217;}.cls-12,.cls-13,.cls-14,.cls-15,.cls-17,.cls-18,.cls-2,.cls-7,.cls-8{stroke-linecap:round;}.cls-2{stroke-width:7px;}.cls-3{fill:#f5f3f1;}.cls-4{fill:#b33e2e;}.cls-5{stroke:#f200ff;stroke-width:0.5px;}.cls-6{fill:#fbd4ac;}.cls-7{stroke-width:3px;}.cls-9{fill:#e97b83;}.cls-10{fill:#482a0e;}.cls-11{fill:#501217;}.cls-12,.cls-13,.cls-14,.cls-15,.cls-17,.cls-18{stroke:#ccc;stroke-width:2px;}.cls-13{stroke-dasharray:3.82 5.73;}.cls-14{stroke-dasharray:4.11 6.16;}.cls-15{stroke-dasharray:3.81 5.72;}.cls-16{fill:#333;}.cls-17{stroke-dasharray:4.13 6.2;}.cls-18{stroke-dasharray:4.21 6.31;}</style></defs><title>Asset 1</title><g id="Layer_2" data-name="Layer 2"><g id="Layer_1-2" data-name="Layer 1"><path class="cls-1" d="M282.27,150.8c19.09,1.28,41-7.89,43.92-35.14s-19-43.62-38.07-44.9Z"/><ellipse class="cls-1" cx="287.15" cy="165.93" rx="44.9" ry="8.3"/><line class="cls-2" x1="269.58" y1="144.95" x2="260.8" y2="166.42"/><line class="cls-2" x1="291.05" y1="148.85" x2="293.01" y2="160.56"/><ellipse class="cls-3" cx="284.7" cy="110.82" rx="40.05" ry="34.65" transform="translate(155.12 387.49) rotate(-86.17)"/><ellipse class="cls-4" cx="284.7" cy="110.82" rx="32.04" ry="27.72" transform="translate(155.12 387.49) rotate(-86.17)"/><path class="cls-5" d="M284.19,133.09q-.48,0-1,0a16.2,16.2,0,0,1-11.79-6.81,24.77,24.77,0,0,1-4.64-16.62c.79-11.81,8.89-21.07,18.43-21.07q.48,0,1,0A16.2,16.2,0,0,1,298,95.4,24.77,24.77,0,0,1,302.62,112C301.83,123.83,293.74,133.09,284.19,133.09Z"/><path class="cls-3" d="M284.19,133.09q-.48,0-1,0a16.2,16.2,0,0,1-11.79-6.81,24.77,24.77,0,0,1-4.64-16.62c.79-11.81,8.89-21.07,18.43-21.07q.48,0,1,0A16.2,16.2,0,0,1,298,95.4,24.77,24.77,0,0,1,302.62,112C301.83,123.83,293.74,133.09,284.19,133.09Z"/><path class="cls-4" d="M284.19,125.28h-.45a8.55,8.55,0,0,1-6.08-3.73,17,17,0,0,1-3.08-11.4c.51-7.6,5.28-13.78,10.64-13.78h.45a8.55,8.55,0,0,1,6.08,3.73,17,17,0,0,1,3.08,11.4C294.32,119.1,289.55,125.28,284.19,125.28Z"/><polygon class="cls-3" points="13.7 128.81 26.68 165.58 31 166.3 55.52 162.69 75.7 156.2 76.42 154.04 69.21 116.55 13.7 128.81"/><path class="cls-6" d="M13.7,128.81s36.77-1.44,55.52-12.26c0,0-.72-24.51-16.58-36S20.19,91.31,20.19,91.31Z"/><path class="cls-6" d="M12.26,136l-3.6-5s-8.65,5.77-5,10.09,20.19,1.44,20.19,1.44a92.13,92.13,0,0,0,11.63-3,3,3,0,0,0,1.68-3.94h0a3,3,0,0,0-3.57-1.67c-5.82,1.76-18.39,5-26,3.64a.29.29,0,0,1-.07-.53A20.35,20.35,0,0,1,12.26,136Z"/><line class="cls-2" x1="303.74" y1="147.87" x2="312.53" y2="167.4"/><path class="cls-7" d="M72.82,81.94s69.94,13.7,22.35,71.38"/><path class="cls-4" d="M56.24,130.25,53.35,149l4.33,5,5-5L58.4,129.53l1.45-3.87a1,1,0,0,0-1.21-1.25l-5.09,1.7a1,1,0,0,0-.31,1.66Z"/><path class="cls-6" d="M72.1,118.71,106,110.78l.48-.72a2.74,2.74,0,0,1,2.67-1.19l1.72.25a2.74,2.74,0,0,1,2.18,1.75l.64,1.71a2.13,2.13,0,0,1-1.73,2.87l-3.08.39-36,8.65Z"/><line class="cls-8" x1="74.26" y1="83.38" x2="95.17" y2="151.16"/><ellipse class="cls-9" cx="49.75" cy="113.3" rx="7.21" ry="4.69" transform="translate(-31.35 19.84) rotate(-17.24)"/><path class="cls-10" d="M46.86,66.08C9.49,56.25,13.39,78.41,13.39,78.41A9.73,9.73,0,0,0,4.33,80.5c-10.09,8.65,9.37,48.31,9.37,48.31s13-15.86,12.26-37.49c0,0,49.75,1.44,36.77-33.89C62.73,57.43,60.56,69.69,46.86,66.08Z"/><polygon class="cls-3" points="7.93 130.97 11.54 136.74 16.58 135.29 13.7 128.81 7.93 130.97"/><path class="cls-3" d="M5,106.46c41.82-7.93,57-18,57-18l4.33,10.09s-38.26,14.42-59.87,13l-2.94,4.44a.88.88,0,0,1-1.61-.4l-.22-2.17a7.26,7.26,0,0,1,1.18-4.75h0l-.76-.76A7.26,7.26,0,0,1,0,102.73v-.45a.88.88,0,0,1,1.53-.58Z"/><polygon class="cls-3" points="68.49 118.71 72.82 117.99 74.26 124.48 69.94 125.92 68.49 118.71"/><polygon class="cls-11" points="193.38 7.59 187.92 13.77 195.93 15.43 193.38 7.59"/><rect class="cls-11" x="186.95" y="12.69" width="0.96" height="46.68" transform="translate(11.26 -37.41) rotate(11.75)"/><polygon class="cls-4" points="185.32 48.86 183.21 58.99 186.59 62.83 188.67 52.82 185.32 48.86"/><polygon class="cls-4" points="184.32 48.65 182.21 58.79 177.58 60.96 179.66 50.95 184.32 48.65"/><polygon class="cls-11" points="102.38 0 102.47 8.24 109.53 4.11 102.38 0"/><rect class="cls-11" x="116.56" y="1.75" width="0.96" height="46.68" transform="translate(3.37 62.6) rotate(-30.36)"/><polygon class="cls-4" points="124.07 36.02 129.31 44.95 134.39 45.53 129.22 36.71 124.07 36.02"/><polygon class="cls-4" points="123.19 36.53 128.42 45.47 126.44 50.18 121.28 41.36 123.19 36.53"/><polygon class="cls-11" points="276.69 50.88 268.5 49.92 271.71 57.45 276.69 50.88"/><rect class="cls-11" x="249.47" y="38.9" width="0.96" height="46.68" transform="translate(209.2 -192.09) rotate(66.91)"/><polygon class="cls-4" points="238.21 67.83 228.69 71.89 227.47 76.86 236.88 72.85 238.21 67.83"/><polygon class="cls-4" points="237.81 66.89 228.29 70.95 223.86 68.39 233.27 64.39 237.81 66.89"/><polygon class="cls-11" points="104.31 220.53 112.22 218.21 106.33 212.53 104.31 220.53"/><rect class="cls-11" x="124.03" y="176.3" width="0.96" height="46.68" transform="translate(75.46 429.75) rotate(-136.02)"/><polygon class="cls-4" points="133.13 189.92 140.32 182.47 139.51 177.42 132.41 184.78 133.13 189.92"/><polygon class="cls-4" points="133.87 190.63 141.06 183.18 146.13 183.81 139.03 191.17 133.87 190.63"/><polygon class="cls-11" points="253.06 211.79 248.93 204.65 244.81 211.72 253.06 211.79"/><rect class="cls-11" x="227.49" y="173.79" width="0.96" height="46.68" transform="translate(513.1 99.5) rotate(120.25)"/><polygon class="cls-4" points="216.48 191.05 207.54 185.84 202.82 187.83 211.66 192.98 216.48 191.05"/><polygon class="cls-4" points="217 190.17 208.05 184.95 207.46 179.88 216.29 185.03 217 190.17"/><ellipse class="cls-1" cx="55.88" cy="187.21" rx="42.18" ry="6.49"/><path class="cls-12" d="M118.24,97.08s.71-.22,1.87-.71"/><path class="cls-13" d="M125.2,93.75c8.34-5.15,19.91-16.85,9-39.23"/><path class="cls-12" d="M132.92,52q-.47-.86-1-1.74"/><path class="cls-12" d="M139.87,102.13s.73,0,2-.11"/><path class="cls-14" d="M147.94,101.06c10.16-2.27,27-9.35,33.29-31.47"/><path class="cls-12" d="M182,66.6q.22-1,.41-2"/><path class="cls-12" d="M124.73,125.92s.72.12,2,.4"/><path class="cls-15" d="M132.21,127.77c14.13,4.29,41.14,17,15.94,47.13"/><path class="cls-12" d="M146.27,177.08q-.65.73-1.35,1.48"/><path class="cls-16" d="M26.68,165.58A156.43,156.43,0,0,0,76.42,154l6.49,28.84s7.93-6.49,11.54,2.16c0,0-4.33,1.44-13.7.72L72.1,159.09s-14.42,7.21-39.65,9.37l5,10.09-14.42,2.16s7.21,4.33,3.6,9.37A29.13,29.13,0,0,1,16.58,180L31,175.67Z"/><path class="cls-12" d="M141.31,118s.73-.1,2-.2"/><path class="cls-17" d="M149.49,117.68c11.59.44,31.28,4.86,30,29.87-1,20.86,11.87,30.4,19.1,34.09"/><path class="cls-12" d="M201.44,182.93c1.17.47,1.88.67,1.88.67"/><path class="cls-12" d="M165.11,107.9s.72.16,2,.31"/><path class="cls-18" d="M173.38,108.5c9.15-.24,23.64-3.47,31.38-20.07a28,28,0,0,1,14.19-14.25"/><path class="cls-12" d="M221.89,73q1-.31,1.92-.56"/></g></g></svg>