<svg xmlns="http://www.w3.org/2000/svg" width="91.191" height="91" viewBox="0 0 91.191 91">
  <g id="logo" transform="translate(0.5 0.5)">
    <path id="Union_1" data-name="Union 1" d="M-2408,1107v-19.654h11.839c7.084,0,12.826-6.019,12.826-13.447v-20.688a36.412,36.412,0,0,1,18.745-32.2v0a33.115,33.115,0,0,1,15.81-4.008,33.137,33.137,0,0,1,17.5,5.014,35.335,35.335,0,0,1,12.459,13.241l-32.741,34.239.047.009a13.807,13.807,0,0,0,2.713.259,15.3,15.3,0,0,0,10.389-4.107,15.279,15.279,0,0,0,1.48-1.551l5.673-5.948,12.431,13.033.829.869-5.16,5.41c-.029.032-.05.062-.079.093l-2.338,2.452c-.03.031-.06.051-.089.082a33.572,33.572,0,0,1-23.137,9.321,33.128,33.128,0,0,1-10.606-1.738h-.01a33.706,33.706,0,0,1-7.291-3.507c-4.766,13.333-17.039,22.83-31.424,22.83Zm43.411-50.119v-3.67a17.03,17.03,0,0,0,.326,3.351c.007.035.014.069.021.1L-2345.6,1037a14.881,14.881,0,0,0-3.2-.344c-8.529-.008-15.511,7.12-15.792,15.993Z" transform="translate(2408 -1017)" fill="#acb5be" stroke="rgba(0,0,0,0)" stroke-width="1"/>
  </g>
</svg>
