<svg id="Layer_1" data-name="Layer 1" xmlns="http://www.w3.org/2000/svg" viewBox="0 0 960 102.83"><defs><style>.cls-1,.cls-3{fill:#b3b3b3;}.cls-2{fill:#fff;}.cls-3{fill-rule:evenodd;}.cls-4{fill:none;stroke:#b3b3b3;stroke-linejoin:round;}</style></defs><title>Artboard 71</title><path class="cls-1" d="M611.4,76.81A15,15,0,1,0,591.52,91a1.44,1.44,0,0,0,.77-1.12c0-.82,0-2.95,0-2.95a10.4,10.4,0,0,1-1.58.11,3.4,3.4,0,0,1-3.43-2.32,4.06,4.06,0,0,0-1.69-2c-.39-.25-.48-.54,0-.63,2.07-.39,2.6,2.34,4,2.77a3.89,3.89,0,0,0,2.89-.23,3,3,0,0,1,1.19-1.93c-3.52-.34-5.61-1.55-6.69-3.51L586.8,79l-.27-.62-.08-.22a10.52,10.52,0,0,1-.49-3.4,5.8,5.8,0,0,1,1.65-4.3,6,6,0,0,1,.26-4.32s1.52-.31,4.4,1.74c1.56-.67,5.72-.72,7.69-.15,1.21-.79,3.42-1.92,4.31-1.61.24.39.76,1.51.32,4a7,7,0,0,1,1.88,5,12.87,12.87,0,0,1-.39,3.09l-.13.44s-.07.21-.16.41l-.1.22c-1,2.28-3.19,3.13-6.65,3.49,1.12.7,1.44,1.58,1.44,4s0,2.7,0,3.25a1.51,1.51,0,0,0,.74,1.1A15,15,0,0,0,611.4,76.81Z"/><path class="cls-1" d="M467.38,76.42A12.87,12.87,0,0,0,474.63,88L468.5,71.18A12.82,12.82,0,0,0,467.38,76.42Zm21.55-.65a6.78,6.78,0,0,0-1.06-3.55,6,6,0,0,1-1.26-3,2.23,2.23,0,0,1,2.16-2.28h.17a12.86,12.86,0,0,0-19.44,2.42l.83,0c1.35,0,3.43-.16,3.43-.16a.53.53,0,0,1,.08,1.06s-.7.08-1.47.12l4.69,13.94,2.82-8.45-2-5.49c-.69,0-1.35-.12-1.35-.12a.53.53,0,0,1,.08-1.06s2.12.16,3.39.16,3.43-.16,3.43-.16a.53.53,0,0,1,.08,1.06s-.7.08-1.47.12l4.65,13.83L488,79.93A12,12,0,0,0,488.94,75.77Zm-8.46,1.77-3.86,11.22a12.87,12.87,0,0,0,7.91-.21,1.23,1.23,0,0,1-.09-.18Zm11.07-7.3a9.83,9.83,0,0,1,.09,1.32,12.15,12.15,0,0,1-1,4.61l-3.93,11.36a12.87,12.87,0,0,0,4.82-17.3Z"/><path class="cls-1" d="M465.25,76.42a15,15,0,1,0,15-15A15,15,0,0,0,465.25,76.42Zm.69,0a14.31,14.31,0,1,1,14.31,14.31A14.33,14.33,0,0,1,465.94,76.42Z"/><g id="solid"><path class="cls-1" d="M365.15,75.26h-5V70.43h5a3,3,0,0,1,1.91.54,2.28,2.28,0,0,1,.66,1.86,2.24,2.24,0,0,1-.74,1.8A2.71,2.71,0,0,1,365.15,75.26Z"/><path class="cls-1" d="M367.74,78.16a2.55,2.55,0,0,1,.77,2,2.67,2.67,0,0,1-.77,2,3,3,0,0,1-2.17.73h-5.42V77.46h5.42A3.1,3.1,0,0,1,367.74,78.16Z"/><path class="cls-1" d="M373.94,61.42h-20a5,5,0,0,0-5,5v20a5,5,0,0,0,5,5h20a5,5,0,0,0,5-5v-20A5,5,0,0,0,373.94,61.42Zm-2.73,21.06A3.89,3.89,0,0,1,370.06,84a5.88,5.88,0,0,1-2,1,9.85,9.85,0,0,1-2.92.38h-8V67.94h8.5A6.07,6.07,0,0,1,369.37,69a3.84,3.84,0,0,1,1.42,3.26,3.91,3.91,0,0,1-.65,2.27A4.18,4.18,0,0,1,368.29,76v0a3.84,3.84,0,0,1,2.45,1.53,5.07,5.07,0,0,1,.83,3A5,5,0,0,1,371.21,82.48Z"/></g><path class="cls-1" d="M4.37,67.31,6.31,89,15,91.42,23.69,89l1.94-21.69Zm17.22,5.15-.12,1.35-.05.6H11.24l.24,2.72h9.7l-.06.71-.62,7,0,.45L15,86.81h0L9.54,85.3l-.37-4.18h2.67L12,83.25l3,.8h0l3-.8.31-3.45H9l-.65-7.33-.06-.71H21.66Z"/><polygon class="cls-2" points="15 86.81 15 86.81 14.99 86.81 15 86.81"/><path class="cls-1" d="M6.35,61.42H7.7v1.34H8.94V61.42h1.35v4H8.94V64.11H7.7v1.35H6.35v-4Z"/><path class="cls-1" d="M12.07,62.76H10.88V61.42h3.73v1.34H13.42v2.7H12.07v-2.7Z"/><path class="cls-1" d="M15.21,61.42h1.41l.87,1.42.87-1.42h1.41v4H18.41v-2l-.93,1.44h0l-.93-1.44v2H15.21v-4Z"/><path class="cls-1" d="M20.43,61.42h1.35v2.71h1.9v1.34H20.43v-4Z"/><polygon class="cls-2" points="15 84.04 14.99 84.05 14.99 84.05 15 84.04"/><path class="cls-1" d="M135.58,62.53h1.76V61.42h-3.71v.95l1.83,2h-1.83v1.11h3.78v-.95Zm-4.46,0h1.76V61.42h-3.71v.95l1.83,2h-1.83v1.11H133v-.95Zm-2.65,0V61.42h-3.26v4h3.26V64.31h-1.9V62.57Z"/><path class="cls-1" d="M131.32,83.86h0Zm0,2.77h0Z"/><path class="cls-1" d="M120.69,67.31,122.62,89l8.68,2.41L140,89l1.94-21.69Zm17.23,5-.64,7.22v.11l-.45,5.06,0,.45-5.44,1.51h0l-5.45-1.51-.37-4.18h2.67l.19,2.12,3,.8h0l3-.8.31-3.45h-6.21l-.05-.6-.12-1.35-.06-.71h6.68l.24-2.72H124.9l-.05-.6-.12-1.35-.06-.71H138Z"/><polygon class="cls-1" points="131.33 83.86 131.32 83.86 131.32 83.86 131.33 83.86"/><polygon class="cls-1" points="131.33 86.62 131.33 86.63 131.32 86.63 131.33 86.62"/><polygon class="cls-1" points="131.33 86.62 131.33 86.63 131.32 86.63 131.33 86.62"/><polygon class="cls-1" points="131.33 83.86 131.32 83.86 131.32 83.86 131.33 83.86"/><path class="cls-1" d="M232.63,61.42v30h30v-30Zm16.19,23.23a4.68,4.68,0,0,1-.39,2,3.71,3.71,0,0,1-1,1.32,3.89,3.89,0,0,1-1.4.72,5.72,5.72,0,0,1-1.56.22,5.89,5.89,0,0,1-2.57-.49A4.89,4.89,0,0,1,240.16,87l1.76-1.6a3.66,3.66,0,0,0,1.18.93,3.14,3.14,0,0,0,1.24.23,2,2,0,0,0,.71-.13,1.88,1.88,0,0,0,.63-.39,1.92,1.92,0,0,0,.45-.65,2.26,2.26,0,0,0,.17-.91V75.23h2.52Zm10.82,1.8a4.08,4.08,0,0,1-.93,1.3,4.23,4.23,0,0,1-1.41.87,5,5,0,0,1-1.78.31,5.53,5.53,0,0,1-1.68-.24,6.21,6.21,0,0,1-1.36-.61,5.57,5.57,0,0,1-1-.81,7.84,7.84,0,0,1-.73-.84l1.64-1.62a7.27,7.27,0,0,0,.53.59,5,5,0,0,0,.69.58,3.78,3.78,0,0,0,.85.45,3,3,0,0,0,1.07.18,2.19,2.19,0,0,0,1.63-.54,1.79,1.79,0,0,0,.53-1.3,1.82,1.82,0,0,0-.15-.75,1.45,1.45,0,0,0-.5-.58,3.8,3.8,0,0,0-.92-.45,11.76,11.76,0,0,0-1.4-.38,4.67,4.67,0,0,1-1.48-.56,3.85,3.85,0,0,1-1-.9,3.68,3.68,0,0,1-.61-1.15,4.14,4.14,0,0,1-.2-1.29,4.08,4.08,0,0,1,.26-1.45,3.35,3.35,0,0,1,.8-1.22,4,4,0,0,1,1.35-.85,5.17,5.17,0,0,1,1.91-.32,5.3,5.3,0,0,1,1.69.24,5,5,0,0,1,1.18.56,3.53,3.53,0,0,1,.73.63l.37.45-1.54,1.56-.3-.29a3.05,3.05,0,0,0-.51-.41,3.78,3.78,0,0,0-.74-.36,2.75,2.75,0,0,0-1-.16,2.27,2.27,0,0,0-.84.14,1.81,1.81,0,0,0-.59.36,1.43,1.43,0,0,0-.34.49,1.36,1.36,0,0,0-.11.51,1.58,1.58,0,0,0,.12.64,1.41,1.41,0,0,0,.41.52,2.79,2.79,0,0,0,.79.43,8.65,8.65,0,0,0,1.26.35,6.45,6.45,0,0,1,1.39.48,4.29,4.29,0,0,1,1.18.83,3.78,3.78,0,0,1,.82,1.24,4.5,4.5,0,0,1,.31,1.75A3.91,3.91,0,0,1,259.64,86.45Z"/><path id="path1948" class="cls-1" d="M712.7,61.42a20.44,20.44,0,0,0-3.42.29c-3,.54-3.58,1.66-3.58,3.72v2.73h7.16v.91H703a4.47,4.47,0,0,0-4.47,3.63,13.38,13.38,0,0,0,0,7.27c.51,2.12,1.72,3.63,3.8,3.63h2.46V80.33a4.55,4.55,0,0,1,4.47-4.45h7.15A3.61,3.61,0,0,0,720,72.24V65.43a4,4,0,0,0-3.58-3.72A22.32,22.32,0,0,0,712.7,61.42Zm-3.87,2.19A1.36,1.36,0,1,1,707.48,65,1.36,1.36,0,0,1,708.83,63.61Z"/><path id="path1950" class="cls-1" d="M720.9,69.07v3.18a4.59,4.59,0,0,1-4.47,4.54h-7.15a3.65,3.65,0,0,0-3.58,3.64v6.82c0,1.94,1.69,3.08,3.58,3.64a12,12,0,0,0,7.15,0c1.8-.52,3.58-1.57,3.58-3.64V84.51h-7.15V83.6h10.73c2.08,0,2.86-1.45,3.58-3.63a12.28,12.28,0,0,0,0-7.27c-.51-2.07-1.5-3.63-3.58-3.63Zm-4,17.26a1.36,1.36,0,1,1-1.34,1.36A1.35,1.35,0,0,1,716.88,86.32Z"/><polygon class="cls-3" points="820.49 73.48 823.64 76.45 820.5 79.57 820.49 73.48"/><polygon class="cls-3" points="828.79 76.45 834.37 72.1 834.37 80.7 828.79 76.45"/><path class="cls-3" d="M814.19,61.42v30h30v-30Zm25.52,23.64-5.34,1.8-8.45-8.11-5.42,4.13-2.17-1V71l2.17-1,5.42,4.12,8.45-8.44L839.71,68Z"/><path class="cls-1" d="M947.56,79.29A2.8,2.8,0,0,1,947,81.2a2,2,0,0,1-1.59.65,1.88,1.88,0,0,1-1.52-.68,3.25,3.25,0,0,1,0-3.78,2,2,0,0,1,1.56-.69,1.9,1.9,0,0,1,1.54.65A3,3,0,0,1,947.56,79.29Z"/><path class="cls-1" d="M945.5,61.42c-6.31,0-11.43,1.85-11.43,4.14V87.28c0,2.28,5.11,4.14,11.43,4.14s11.43-1.85,11.43-4.14V65.55C956.93,63.27,951.81,61.42,945.5,61.42Zm0,1.14c5,0,9.08,1.22,9.08,2.73a.84.84,0,0,1,0,.27c-.45,1.38-4.33,2.45-9,2.45s-8.59-1.08-9-2.45a.84.84,0,0,1,0-.27C936.42,63.78,940.48,62.56,945.5,62.56Zm8.66,19.16v1.42h-4.34V75.39h1.5v6.33Zm-13.44.95a3,3,0,0,1-2,.59,4,4,0,0,1-1-.13,2.51,2.51,0,0,1-.83-.34l-.14-.1V80.78l.56.51a2.06,2.06,0,0,0,.69.39,2.32,2.32,0,0,0,.8.16c1,0,1-.49,1-.73a.79.79,0,0,0-.2-.52,4.33,4.33,0,0,0-1.12-.78,4.52,4.52,0,0,1-1.31-1,2,2,0,0,1-.44-1.3,2,2,0,0,1,.73-1.62,2.75,2.75,0,0,1,1.85-.61,3.19,3.19,0,0,1,1.56.3l.17.1v1.81l-.54-.42a1.93,1.93,0,0,0-1.23-.37,1.18,1.18,0,0,0-.77.22.61.61,0,0,0-.24.51.89.89,0,0,0,.16.51,3.38,3.38,0,0,0,1,.73,4.84,4.84,0,0,1,1.4,1.07,2,2,0,0,1,.46,1.28A2.06,2.06,0,0,1,940.72,82.66Zm5.85,2.22-1.4-1.62a3.93,3.93,0,0,1-.74-.1,3.27,3.27,0,0,1-1.71-1,4,4,0,0,1-1-2.81,4.25,4.25,0,0,1,1-3,3.58,3.58,0,0,1,2.78-1.13,3.35,3.35,0,0,1,2.59,1.1,4,4,0,0,1,1,2.81,4.51,4.51,0,0,1-.72,2.62,3.22,3.22,0,0,1-1.53,1.2l.18.19,1.63,1.7Z"/><path class="cls-1" d="M261.38,12.67v27.5h-27.5V12.67h27.5m1.25-1.25h-30v30h30v-30Z"/><path class="cls-1" d="M246.79,19.83c0-.1-.07-.13-.15-.13H244c-.06,0-.1,0-.1.13a3.92,3.92,0,0,1-.12,1l-3.55,12.43c0,.15,0,.19.12.19h1.84c.13,0,.16,0,.19-.13l1-3.75h4l1,3.76c0,.09.09.12.19.12h2.07c.1,0,.13-.07.1-.17Zm-2.9,7.75c.52-1.94,1.18-4.42,1.45-5.88h0c.32,1.46,1.14,4.49,1.49,5.88Z"/><path class="cls-1" d="M252.47,20.63a1.28,1.28,0,1,1,2.56,0,1.19,1.19,0,0,1-1.3,1.27A1.18,1.18,0,0,1,252.47,20.63Z"/><path class="cls-1" d="M254.87,23.46v9.87c0,.1,0,.15-.15.15h-1.93a.15.15,0,0,1-.17-.17V23.46h0c0-.1,0-.15.15-.15h2C254.82,23.31,254.87,23.35,254.87,23.46Z"/><path class="cls-1" d="M246.79,19.83c0-.1-.07-.13-.15-.13H244c-.06,0-.1,0-.1.13a3.92,3.92,0,0,1-.12,1l-3.55,12.43c0,.15,0,.19.12.19h1.84c.13,0,.16,0,.19-.13l1-3.75h4l1,3.76c0,.09.09.12.19.12h2.07c.1,0,.13-.07.1-.17Zm-2.9,7.75c.52-1.94,1.18-4.42,1.45-5.88h0c.32,1.46,1.14,4.49,1.49,5.88Zm9.86-8.23a1.22,1.22,0,0,0-1.28,1.28,1.18,1.18,0,0,0,1.26,1.27,1.19,1.19,0,0,0,1.3-1.27A1.21,1.21,0,0,0,253.75,19.35Zm1,4h-2c-.11,0-.15.05-.15.15h0v9.85a.15.15,0,0,0,.17.17h1.93c.13,0,.15-.05.15-.15V23.46C254.87,23.35,254.82,23.31,254.72,23.31Zm-7.93-3.48c0-.1-.07-.13-.15-.13H244c-.06,0-.1,0-.1.13a3.92,3.92,0,0,1-.12,1l-3.55,12.43c0,.15,0,.19.12.19h1.84c.13,0,.16,0,.19-.13l1-3.75h4l1,3.76c0,.09.09.12.19.12h2.07c.1,0,.13-.07.1-.17Zm-2.9,7.75c.52-1.94,1.18-4.42,1.45-5.88h0c.32,1.46,1.14,4.49,1.49,5.88Zm9.86-8.23a1.22,1.22,0,0,0-1.28,1.28,1.18,1.18,0,0,0,1.26,1.27,1.19,1.19,0,0,0,1.3-1.27A1.21,1.21,0,0,0,253.75,19.35Zm1,4h-2c-.11,0-.15.05-.15.15h0v9.85a.15.15,0,0,0,.17.17h1.93c.13,0,.15-.05.15-.15V23.46C254.87,23.35,254.82,23.31,254.72,23.31Zm0,0h-2c-.11,0-.15.05-.15.15h0v9.85a.15.15,0,0,0,.17.17h1.93c.13,0,.15-.05.15-.15V23.46C254.87,23.35,254.82,23.31,254.72,23.31Zm-1-1.41a1.19,1.19,0,0,0,1.3-1.27,1.28,1.28,0,1,0-2.56,0A1.18,1.18,0,0,0,253.73,21.9Zm-7.09-2.2H244c-.06,0-.1,0-.1.13a3.92,3.92,0,0,1-.12,1l-3.55,12.43c0,.15,0,.19.12.19h1.84c.13,0,.16,0,.19-.13l1-3.75h4l1,3.76c0,.09.09.12.19.12h2.07c.1,0,.13-.07.1-.17l-4-13.48C246.76,19.73,246.72,19.7,246.64,19.7Zm-2.75,7.88c.52-1.94,1.18-4.42,1.45-5.88h0c.32,1.46,1.14,4.49,1.49,5.88Zm10.83-4.27h-2c-.11,0-.15.05-.15.15h0v9.85a.15.15,0,0,0,.17.17h1.93c.13,0,.15-.05.15-.15V23.46C254.87,23.35,254.82,23.31,254.72,23.31Zm-1-1.41a1.19,1.19,0,0,0,1.3-1.27,1.28,1.28,0,1,0-2.56,0A1.18,1.18,0,0,0,253.73,21.9Zm-7.09-2.2H244c-.06,0-.1,0-.1.13a3.92,3.92,0,0,1-.12,1l-3.55,12.43c0,.15,0,.19.12.19h1.84c.13,0,.16,0,.19-.13l1-3.75h4l1,3.76c0,.09.09.12.19.12h2.07c.1,0,.13-.07.1-.17l-4-13.48C246.76,19.73,246.72,19.7,246.64,19.7Zm-2.75,7.88c.52-1.94,1.18-4.42,1.45-5.88h0c.32,1.46,1.14,4.49,1.49,5.88Zm2.9-7.75c0-.1-.07-.13-.15-.13H244c-.06,0-.1,0-.1.13a3.92,3.92,0,0,1-.12,1l-3.55,12.43c0,.15,0,.19.12.19h1.84c.13,0,.16,0,.19-.13l1-3.75h4l1,3.76c0,.09.09.12.19.12h2.07c.1,0,.13-.07.1-.17Zm-2.9,7.75c.52-1.94,1.18-4.42,1.45-5.88h0c.32,1.46,1.14,4.49,1.49,5.88Zm9.86-8.23a1.22,1.22,0,0,0-1.28,1.28,1.18,1.18,0,0,0,1.26,1.27,1.19,1.19,0,0,0,1.3-1.27A1.21,1.21,0,0,0,253.75,19.35Zm1,4h-2c-.11,0-.15.05-.15.15h0v9.85a.15.15,0,0,0,.17.17h1.93c.13,0,.15-.05.15-.15V23.46C254.87,23.35,254.82,23.31,254.72,23.31Zm0,0h-2c-.11,0-.15.05-.15.15h0v9.85a.15.15,0,0,0,.17.17h1.93c.13,0,.15-.05.15-.15V23.46C254.87,23.35,254.82,23.31,254.72,23.31Zm-1-4a1.22,1.22,0,0,0-1.28,1.28,1.18,1.18,0,0,0,1.26,1.27,1.19,1.19,0,0,0,1.3-1.27A1.21,1.21,0,0,0,253.75,19.35Zm-7,.48c0-.1-.07-.13-.15-.13H244c-.06,0-.1,0-.1.13a3.92,3.92,0,0,1-.12,1l-3.55,12.43c0,.15,0,.19.12.19h1.84c.13,0,.16,0,.19-.13l1-3.75h4l1,3.76c0,.09.09.12.19.12h2.07c.1,0,.13-.07.1-.17Zm-2.9,7.75c.52-1.94,1.18-4.42,1.45-5.88h0c.32,1.46,1.14,4.49,1.49,5.88Zm10.83-4.27h-2c-.11,0-.15.05-.15.15h0v9.85a.15.15,0,0,0,.17.17h1.93c.13,0,.15-.05.15-.15V23.46C254.87,23.35,254.82,23.31,254.72,23.31Zm-1-4a1.22,1.22,0,0,0-1.28,1.28,1.18,1.18,0,0,0,1.26,1.27,1.19,1.19,0,0,0,1.3-1.27A1.21,1.21,0,0,0,253.75,19.35Zm-7,.48c0-.1-.07-.13-.15-.13H244c-.06,0-.1,0-.1.13a3.92,3.92,0,0,1-.12,1l-3.55,12.43c0,.15,0,.19.12.19h1.84c.13,0,.16,0,.19-.13l1-3.75h4l1,3.76c0,.09.09.12.19.12h2.07c.1,0,.13-.07.1-.17Zm-2.9,7.75c.52-1.94,1.18-4.42,1.45-5.88h0c.32,1.46,1.14,4.49,1.49,5.88Z"/><path class="cls-1" d="M145.06,12.67v27.5h-27.5V12.67h27.5m1.25-1.25h-30v30h30v-30Z"/><path class="cls-1" d="M128.38,19.57c0-.1-.06-.12-.15-.12H125.6c-.06,0-.1,0-.1.12a3.85,3.85,0,0,1-.12,1L121.83,33c0,.15,0,.19.12.19h1.84c.13,0,.16,0,.19-.14l1-3.74h4l1,3.75a.18.18,0,0,0,.19.13h2.06c.1,0,.13-.06.1-.16Zm-2.9,7.73c.51-1.94,1.2-4.41,1.46-5.88h0c.31,1.47,1.16,4.49,1.51,5.88Z"/><path class="cls-1" d="M137.13,22.87c-2.69,0-4.21,2.42-4.21,5.37,0,2.71,1.23,5.15,4.53,5.15a5.64,5.64,0,0,0,2.52-.48.27.27,0,0,0,.12-.25V31.1c0-.11-.06-.13-.15-.09a4.85,4.85,0,0,1-2,.39c-1.89,0-2.69-1.13-2.72-2.8h3.27a17.33,17.33,0,0,0,2.09-.09.17.17,0,0,0,.16-.16,5.9,5.9,0,0,0,.1-1.33C140.8,25.16,139.85,22.87,137.13,22.87Zm1.51,4a6.84,6.84,0,0,1-.92,0H135.2c.13-1.11.64-2.16,1.84-2.16a1.74,1.74,0,0,1,1.63,1.92C138.67,26.69,138.64,26.75,138.64,26.84Z"/><path class="cls-1" d="M128.38,19.57c0-.1-.06-.12-.15-.12H125.6c-.06,0-.1,0-.1.12a3.85,3.85,0,0,1-.12,1L121.83,33c0,.15,0,.19.12.19h1.84c.13,0,.16,0,.19-.14l1-3.74h4l1,3.75a.18.18,0,0,0,.19.13h2.06c.1,0,.13-.06.1-.16Zm-2.9,7.73c.51-1.94,1.2-4.41,1.46-5.88h0c.31,1.47,1.16,4.49,1.51,5.88Zm11.65-4.43c-2.69,0-4.21,2.42-4.21,5.37,0,2.71,1.23,5.15,4.53,5.15a5.64,5.64,0,0,0,2.52-.48.27.27,0,0,0,.12-.25V31.1c0-.11-.06-.13-.15-.09a4.85,4.85,0,0,1-2,.39c-1.89,0-2.69-1.13-2.72-2.8h3.27a17.33,17.33,0,0,0,2.09-.09.17.17,0,0,0,.16-.16,5.9,5.9,0,0,0,.1-1.33C140.8,25.16,139.85,22.87,137.13,22.87Zm1.51,4a6.84,6.84,0,0,1-.92,0H135.2c.13-1.11.64-2.16,1.84-2.16a1.74,1.74,0,0,1,1.63,1.92C138.67,26.69,138.64,26.75,138.64,26.84Zm-10.26-7.27c0-.1-.06-.12-.15-.12H125.6c-.06,0-.1,0-.1.12a3.85,3.85,0,0,1-.12,1L121.83,33c0,.15,0,.19.12.19h1.84c.13,0,.16,0,.19-.14l1-3.74h4l1,3.75a.18.18,0,0,0,.19.13h2.06c.1,0,.13-.06.1-.16Zm-2.9,7.73c.51-1.94,1.2-4.41,1.46-5.88h0c.31,1.47,1.16,4.49,1.51,5.88Zm11.65-4.43c-2.69,0-4.21,2.42-4.21,5.37,0,2.71,1.23,5.15,4.53,5.15a5.64,5.64,0,0,0,2.52-.48.27.27,0,0,0,.12-.25V31.1c0-.11-.06-.13-.15-.09a4.85,4.85,0,0,1-2,.39c-1.89,0-2.69-1.13-2.72-2.8h3.27a17.33,17.33,0,0,0,2.09-.09.17.17,0,0,0,.16-.16,5.9,5.9,0,0,0,.1-1.33C140.8,25.16,139.85,22.87,137.13,22.87Zm1.51,4a6.84,6.84,0,0,1-.92,0H135.2c.13-1.11.64-2.16,1.84-2.16a1.74,1.74,0,0,1,1.63,1.92C138.67,26.69,138.64,26.75,138.64,26.84Zm-1.51-4c-2.69,0-4.21,2.42-4.21,5.37,0,2.71,1.23,5.15,4.53,5.15a5.64,5.64,0,0,0,2.52-.48.27.27,0,0,0,.12-.25V31.1c0-.11-.06-.13-.15-.09a4.85,4.85,0,0,1-2,.39c-1.89,0-2.69-1.13-2.72-2.8h3.27a17.33,17.33,0,0,0,2.09-.09.17.17,0,0,0,.16-.16,5.9,5.9,0,0,0,.1-1.33C140.8,25.16,139.85,22.87,137.13,22.87Zm1.51,4a6.84,6.84,0,0,1-.92,0H135.2c.13-1.11.64-2.16,1.84-2.16a1.74,1.74,0,0,1,1.63,1.92C138.67,26.69,138.64,26.75,138.64,26.84Zm-10.26-7.27c0-.1-.06-.12-.15-.12H125.6c-.06,0-.1,0-.1.12a3.85,3.85,0,0,1-.12,1L121.83,33c0,.15,0,.19.12.19h1.84c.13,0,.16,0,.19-.14l1-3.74h4l1,3.75a.18.18,0,0,0,.19.13h2.06c.1,0,.13-.06.1-.16Zm-2.9,7.73c.51-1.94,1.2-4.41,1.46-5.88h0c.31,1.47,1.16,4.49,1.51,5.88Zm2.9-7.73c0-.1-.06-.12-.15-.12H125.6c-.06,0-.1,0-.1.12a3.85,3.85,0,0,1-.12,1L121.83,33c0,.15,0,.19.12.19h1.84c.13,0,.16,0,.19-.14l1-3.74h4l1,3.75a.18.18,0,0,0,.19.13h2.06c.1,0,.13-.06.1-.16Zm-2.9,7.73c.51-1.94,1.2-4.41,1.46-5.88h0c.31,1.47,1.16,4.49,1.51,5.88Zm11.65-4.43c-2.69,0-4.21,2.42-4.21,5.37,0,2.71,1.23,5.15,4.53,5.15a5.64,5.64,0,0,0,2.52-.48.27.27,0,0,0,.12-.25V31.1c0-.11-.06-.13-.15-.09a4.85,4.85,0,0,1-2,.39c-1.89,0-2.69-1.13-2.72-2.8h3.27a17.33,17.33,0,0,0,2.09-.09.17.17,0,0,0,.16-.16,5.9,5.9,0,0,0,.1-1.33C140.8,25.16,139.85,22.87,137.13,22.87Zm1.51,4a6.84,6.84,0,0,1-.92,0H135.2c.13-1.11.64-2.16,1.84-2.16a1.74,1.74,0,0,1,1.63,1.92C138.67,26.69,138.64,26.75,138.64,26.84Zm-1.51-4c-2.69,0-4.21,2.42-4.21,5.37,0,2.71,1.23,5.15,4.53,5.15a5.64,5.64,0,0,0,2.52-.48.27.27,0,0,0,.12-.25V31.1c0-.11-.06-.13-.15-.09a4.85,4.85,0,0,1-2,.39c-1.89,0-2.69-1.13-2.72-2.8h3.27a17.33,17.33,0,0,0,2.09-.09.17.17,0,0,0,.16-.16,5.9,5.9,0,0,0,.1-1.33C140.8,25.16,139.85,22.87,137.13,22.87Zm1.51,4a6.84,6.84,0,0,1-.92,0H135.2c.13-1.11.64-2.16,1.84-2.16a1.74,1.74,0,0,1,1.63,1.92C138.67,26.69,138.64,26.75,138.64,26.84Zm-10.41-7.39H125.6c-.06,0-.1,0-.1.12a3.85,3.85,0,0,1-.12,1L121.83,33c0,.15,0,.19.12.19h1.84c.13,0,.16,0,.19-.14l1-3.74h4l1,3.75a.18.18,0,0,0,.19.13h2.06c.1,0,.13-.06.1-.16l-4-13.47C128.35,19.47,128.32,19.45,128.23,19.45Zm-2.75,7.85c.51-1.94,1.2-4.41,1.46-5.88h0c.31,1.47,1.16,4.49,1.51,5.88Zm11.65-4.43c-2.69,0-4.21,2.42-4.21,5.37,0,2.71,1.23,5.15,4.53,5.15a5.64,5.64,0,0,0,2.52-.48.27.27,0,0,0,.12-.25V31.1c0-.11-.06-.13-.15-.09a4.85,4.85,0,0,1-2,.39c-1.89,0-2.69-1.13-2.72-2.8h3.27a17.33,17.33,0,0,0,2.09-.09.17.17,0,0,0,.16-.16,5.9,5.9,0,0,0,.1-1.33C140.8,25.16,139.85,22.87,137.13,22.87Zm1.51,4a6.84,6.84,0,0,1-.92,0H135.2c.13-1.11.64-2.16,1.84-2.16a1.74,1.74,0,0,1,1.63,1.92C138.67,26.69,138.64,26.75,138.64,26.84Zm-10.41-7.39H125.6c-.06,0-.1,0-.1.12a3.85,3.85,0,0,1-.12,1L121.83,33c0,.15,0,.19.12.19h1.84c.13,0,.16,0,.19-.14l1-3.74h4l1,3.75a.18.18,0,0,0,.19.13h2.06c.1,0,.13-.06.1-.16l-4-13.47C128.35,19.47,128.32,19.45,128.23,19.45Zm-2.75,7.85c.51-1.94,1.2-4.41,1.46-5.88h0c.31,1.47,1.16,4.49,1.51,5.88Zm2.9-7.73c0-.1-.06-.12-.15-.12H125.6c-.06,0-.1,0-.1.12a3.85,3.85,0,0,1-.12,1L121.83,33c0,.15,0,.19.12.19h1.84c.13,0,.16,0,.19-.14l1-3.74h4l1,3.75a.18.18,0,0,0,.19.13h2.06c.1,0,.13-.06.1-.16Zm-2.9,7.73c.51-1.94,1.2-4.41,1.46-5.88h0c.31,1.47,1.16,4.49,1.51,5.88Zm11.65-4.43c-2.69,0-4.21,2.42-4.21,5.37,0,2.71,1.23,5.15,4.53,5.15a5.64,5.64,0,0,0,2.52-.48.27.27,0,0,0,.12-.25V31.1c0-.11-.06-.13-.15-.09a4.85,4.85,0,0,1-2,.39c-1.89,0-2.69-1.13-2.72-2.8h3.27a17.33,17.33,0,0,0,2.09-.09.17.17,0,0,0,.16-.16,5.9,5.9,0,0,0,.1-1.33C140.8,25.16,139.85,22.87,137.13,22.87Zm1.51,4a6.84,6.84,0,0,1-.92,0H135.2c.13-1.11.64-2.16,1.84-2.16a1.74,1.74,0,0,1,1.63,1.92C138.67,26.69,138.64,26.75,138.64,26.84Zm-1.51-4c-2.69,0-4.21,2.42-4.21,5.37,0,2.71,1.23,5.15,4.53,5.15a5.64,5.64,0,0,0,2.52-.48.27.27,0,0,0,.12-.25V31.1c0-.11-.06-.13-.15-.09a4.85,4.85,0,0,1-2,.39c-1.89,0-2.69-1.13-2.72-2.8h3.27a17.33,17.33,0,0,0,2.09-.09.17.17,0,0,0,.16-.16,5.9,5.9,0,0,0,.1-1.33C140.8,25.16,139.85,22.87,137.13,22.87Zm1.51,4a6.84,6.84,0,0,1-.92,0H135.2c.13-1.11.64-2.16,1.84-2.16a1.74,1.74,0,0,1,1.63,1.92C138.67,26.69,138.64,26.75,138.64,26.84Zm-10.26-7.27c0-.1-.06-.12-.15-.12H125.6c-.06,0-.1,0-.1.12a3.85,3.85,0,0,1-.12,1L121.83,33c0,.15,0,.19.12.19h1.84c.13,0,.16,0,.19-.14l1-3.74h4l1,3.75a.18.18,0,0,0,.19.13h2.06c.1,0,.13-.06.1-.16Zm-2.9,7.73c.51-1.94,1.2-4.41,1.46-5.88h0c.31,1.47,1.16,4.49,1.51,5.88Zm11.65-4.43c-2.69,0-4.21,2.42-4.21,5.37,0,2.71,1.23,5.15,4.53,5.15a5.64,5.64,0,0,0,2.52-.48.27.27,0,0,0,.12-.25V31.1c0-.11-.06-.13-.15-.09a4.85,4.85,0,0,1-2,.39c-1.89,0-2.69-1.13-2.72-2.8h3.27a17.33,17.33,0,0,0,2.09-.09.17.17,0,0,0,.16-.16,5.9,5.9,0,0,0,.1-1.33C140.8,25.16,139.85,22.87,137.13,22.87Zm1.51,4a6.84,6.84,0,0,1-.92,0H135.2c.13-1.11.64-2.16,1.84-2.16a1.74,1.74,0,0,1,1.63,1.92C138.67,26.69,138.64,26.75,138.64,26.84Zm-10.26-7.27c0-.1-.06-.12-.15-.12H125.6c-.06,0-.1,0-.1.12a3.85,3.85,0,0,1-.12,1L121.83,33c0,.15,0,.19.12.19h1.84c.13,0,.16,0,.19-.14l1-3.74h4l1,3.75a.18.18,0,0,0,.19.13h2.06c.1,0,.13-.06.1-.16Zm-2.9,7.73c.51-1.94,1.2-4.41,1.46-5.88h0c.31,1.47,1.16,4.49,1.51,5.88Z"/><path class="cls-1" d="M377.69,12.67v27.5h-27.5V12.67h27.5m1.25-1.25h-30v30h30v-30Z"/><path class="cls-1" d="M359.9,19.6V33c0,.12,0,.16-.17.16h-1.92c-.13,0-.16-.06-.16-.16V19.61c0-.12.06-.16.16-.16h1.94C359.85,19.45,359.9,19.49,359.9,19.6Z"/><path class="cls-1" d="M370.17,31.24V19.55c0-.06,0-.1-.12-.1h-2a.12.12,0,0,0-.12.12V22.9a4.87,4.87,0,0,0-.67,0,5,5,0,0,0-5.12,5.32c0,3.48,2,5.2,4.74,5.2a7.65,7.65,0,0,0,3.27-.74c.09,0,.11-.06.11-.15A9.81,9.81,0,0,1,370.17,31.24Zm-2.27,0a2.31,2.31,0,0,1-.89.15c-1.44,0-2.59-1-2.59-3.3,0-2.07,1.13-3.3,2.74-3.3a1.76,1.76,0,0,1,.74.12Z"/><path class="cls-1" d="M359.75,19.45h-1.94c-.1,0-.16,0-.16.16V33c0,.1,0,.16.16.16h1.92c.14,0,.17,0,.17-.16V19.6C359.9,19.49,359.85,19.45,359.75,19.45Zm10.42,11.79V19.55c0-.06,0-.1-.12-.1h-2a.12.12,0,0,0-.12.12V22.9a4.87,4.87,0,0,0-.67,0,5,5,0,0,0-5.12,5.32c0,3.48,2,5.2,4.74,5.2a7.65,7.65,0,0,0,3.27-.74c.09,0,.11-.06.11-.15A9.81,9.81,0,0,1,370.17,31.24Zm-2.27,0a2.31,2.31,0,0,1-.89.15c-1.44,0-2.59-1-2.59-3.3,0-2.07,1.13-3.3,2.74-3.3a1.76,1.76,0,0,1,.74.12Zm-8.15-11.79h-1.94c-.1,0-.16,0-.16.16V33c0,.1,0,.16.16.16h1.92c.14,0,.17,0,.17-.16V19.6C359.9,19.49,359.85,19.45,359.75,19.45Zm10.42,11.79V19.55c0-.06,0-.1-.12-.1h-2a.12.12,0,0,0-.12.12V22.9a4.87,4.87,0,0,0-.67,0,5,5,0,0,0-5.12,5.32c0,3.48,2,5.2,4.74,5.2a7.65,7.65,0,0,0,3.27-.74c.09,0,.11-.06.11-.15A9.81,9.81,0,0,1,370.17,31.24Zm-2.27,0a2.31,2.31,0,0,1-.89.15c-1.44,0-2.59-1-2.59-3.3,0-2.07,1.13-3.3,2.74-3.3a1.76,1.76,0,0,1,.74.12Zm2.27,0V19.55c0-.06,0-.1-.12-.1h-2a.12.12,0,0,0-.12.12V22.9a4.87,4.87,0,0,0-.67,0,5,5,0,0,0-5.12,5.32c0,3.48,2,5.2,4.74,5.2a7.65,7.65,0,0,0,3.27-.74c.09,0,.11-.06.11-.15A9.81,9.81,0,0,1,370.17,31.24Zm-2.27,0a2.31,2.31,0,0,1-.89.15c-1.44,0-2.59-1-2.59-3.3,0-2.07,1.13-3.3,2.74-3.3a1.76,1.76,0,0,1,.74.12Zm-8.15-11.79h-1.94c-.1,0-.16,0-.16.16V33c0,.1,0,.16.16.16h1.92c.14,0,.17,0,.17-.16V19.6C359.9,19.49,359.85,19.45,359.75,19.45Z"/><path class="cls-1" d="M494,12.67v27.5H466.5V12.67H494m1.25-1.25h-30v30h30v-30Z"/><path class="cls-1" d="M480.65,31.39l-.31,1.78a.18.18,0,0,1-.19.15h-6.83v0c-.15,0-.18-.06-.18-.18V19.68c0-.1,0-.16.15-.16h2c.1,0,.13,0,.13.15V31.24h5.15C480.64,31.24,480.67,31.28,480.65,31.39Z"/><path class="cls-1" d="M487.36,23.09v1.8c0,.1,0,.13-.15.13a7.23,7.23,0,0,0-2.39.25v7.88c0,.1,0,.15-.15.15h-2c-.1,0-.15,0-.15-.15v-8h0c0-.15,0-.51-.06-1.21,0-.1,0-.12.1-.16a13.23,13.23,0,0,1,4.6-.86C487.31,23,487.36,23,487.36,23.09Z"/><path class="cls-1" d="M480.54,31.24h-5.15V19.67c0-.12,0-.15-.13-.15h-2c-.12,0-.15.06-.15.16V33.12c0,.12,0,.18.18.18v0h6.83a.18.18,0,0,0,.19-.15l.31-1.78C480.67,31.28,480.64,31.24,480.54,31.24ZM487.21,23a13.23,13.23,0,0,0-4.6.86c-.07,0-.1.06-.1.16.06.7.06,1.06.06,1.21h0v8c0,.12.05.15.15.15h2c.12,0,.15,0,.15-.15V25.27a7.23,7.23,0,0,1,2.39-.25c.11,0,.15,0,.15-.13v-1.8C487.36,23,487.31,23,487.21,23Zm0,0a13.23,13.23,0,0,0-4.6.86c-.07,0-.1.06-.1.16.06.7.06,1.06.06,1.21h0v8c0,.12.05.15.15.15h2c.12,0,.15,0,.15-.15V25.27a7.23,7.23,0,0,1,2.39-.25c.11,0,.15,0,.15-.13v-1.8C487.36,23,487.31,23,487.21,23Zm-6.67,8.27h-5.15V19.67c0-.12,0-.15-.13-.15h-2c-.12,0-.15.06-.15.16V33.12c0,.12,0,.18.18.18v0h6.83a.18.18,0,0,0,.19-.15l.31-1.78C480.67,31.28,480.64,31.24,480.54,31.24ZM487.21,23a13.23,13.23,0,0,0-4.6.86c-.07,0-.1.06-.1.16.06.7.06,1.06.06,1.21h0v8c0,.12.05.15.15.15h2c.12,0,.15,0,.15-.15V25.27a7.23,7.23,0,0,1,2.39-.25c.11,0,.15,0,.15-.13v-1.8C487.36,23,487.31,23,487.21,23Zm-6.67,8.27h-5.15V19.67c0-.12,0-.15-.13-.15h-2c-.12,0-.15.06-.15.16V33.12c0,.12,0,.18.18.18v0h6.83a.18.18,0,0,0,.19-.15l.31-1.78C480.67,31.28,480.64,31.24,480.54,31.24Z"/><path class="cls-1" d="M610.31,12.67v27.5h-27.5V12.67h27.5m1.25-1.25h-30v30h30v-30Z"/><path class="cls-1" d="M592.42,19.51c-1.24,0-2.42,0-3.22.06-.1,0-.12.06-.12.15h0V33.16c0,.11.05.15.15.15h1.92c.11,0,.15-.05.15-.15v-4.8l1,0c2.82,0,5.12-1.36,5.12-4.53C597.39,21.41,595.88,19.51,592.42,19.51Zm-.12,6.87c-.5,0-.72,0-1,0V21.53c.23,0,.7,0,1.2,0,1.68,0,2.65.8,2.65,2.38C595.14,25.87,593.77,26.38,592.3,26.38Z"/><path class="cls-1" d="M604.05,23.11v1.81c0,.1,0,.13-.13.13a7.11,7.11,0,0,0-2.37.25v7.87c0,.1,0,.15-.15.15h-2c-.1,0-.15,0-.15-.15v-8c0-.15,0-.51-.06-1.21,0-.1,0-.13.1-.16A12.75,12.75,0,0,1,603.9,23C604,23,604.05,23,604.05,23.11Z"/><path class="cls-1" d="M592.42,19.51c-1.24,0-2.42,0-3.22.06-.1,0-.12.06-.12.15h0V33.16c0,.11.05.15.15.15h1.92c.11,0,.15-.05.15-.15v-4.8l1,0c2.82,0,5.12-1.36,5.12-4.53C597.39,21.41,595.88,19.51,592.42,19.51Zm-.12,6.87c-.5,0-.72,0-1,0V21.53c.23,0,.7,0,1.2,0,1.68,0,2.65.8,2.65,2.38C595.14,25.87,593.77,26.38,592.3,26.38ZM603.9,23a12.75,12.75,0,0,0-4.57.87c-.09,0-.1.06-.1.16.06.7.06,1.06.06,1.21v8c0,.11.05.15.15.15h2c.12,0,.15-.05.15-.15V25.3a7.11,7.11,0,0,1,2.37-.25c.1,0,.13,0,.13-.13V23.11C604.05,23,604,23,603.9,23Zm-11.48-3.47c-1.24,0-2.42,0-3.22.06-.1,0-.12.06-.12.15h0V33.16c0,.11.05.15.15.15h1.92c.11,0,.15-.05.15-.15v-4.8l1,0c2.82,0,5.12-1.36,5.12-4.53C597.39,21.41,595.88,19.51,592.42,19.51Zm-.12,6.87c-.5,0-.72,0-1,0V21.53c.23,0,.7,0,1.2,0,1.68,0,2.65.8,2.65,2.38C595.14,25.87,593.77,26.38,592.3,26.38ZM603.9,23a12.75,12.75,0,0,0-4.57.87c-.09,0-.1.06-.1.16.06.7.06,1.06.06,1.21v8c0,.11.05.15.15.15h2c.12,0,.15-.05.15-.15V25.3a7.11,7.11,0,0,1,2.37-.25c.1,0,.13,0,.13-.13V23.11C604.05,23,604,23,603.9,23Zm0,0a12.75,12.75,0,0,0-4.57.87c-.09,0-.1.06-.1.16.06.7.06,1.06.06,1.21v8c0,.11.05.15.15.15h2c.12,0,.15-.05.15-.15V25.3a7.11,7.11,0,0,1,2.37-.25c.1,0,.13,0,.13-.13V23.11C604.05,23,604,23,603.9,23Zm-11.48-3.47c-1.24,0-2.42,0-3.22.06-.1,0-.12.06-.12.15h0V33.16c0,.11.05.15.15.15h1.92c.11,0,.15-.05.15-.15v-4.8l1,0c2.82,0,5.12-1.36,5.12-4.53C597.39,21.41,595.88,19.51,592.42,19.51Zm-.12,6.87c-.5,0-.72,0-1,0V21.53c.23,0,.7,0,1.2,0,1.68,0,2.65.8,2.65,2.38C595.14,25.87,593.77,26.38,592.3,26.38Z"/><path class="cls-1" d="M726.63,12.67v27.5h-27.5V12.67h27.5m1.25-1.25h-30v30h30v-30Z"/><path class="cls-1" d="M708.48,19.42c-1.24,0-2.42,0-3.22.06-.1,0-.28.06-.28.15V33.06c0,.11.05.15.15.15H707c.12,0,.15,0,.15-.15v-4.8l1,0c2.82,0,5.12-1.36,5.12-4.54C713.3,21.32,711.94,19.42,708.48,19.42Zm-.26,6.87c-.5,0-.73,0-1,0V21.44c.22,0,.7,0,1.2,0,1.66,0,2.65.8,2.65,2.38C711.07,25.78,709.68,26.29,708.22,26.29Z"/><path class="cls-1" d="M720.77,30.34c0,2-1.53,3.08-3.59,3.08a5.42,5.42,0,0,1-2.56-.54c-.09,0-.1-.1-.1-.2V30.84c0-.12.06-.16.15-.1a4.54,4.54,0,0,0,2.51.74c1,0,1.4-.41,1.4-1s-.29-.85-1.55-1.5c-1.78-.85-2.51-1.72-2.51-3.15,0-1.62,1.26-2.95,3.45-2.95a5.66,5.66,0,0,1,2.23.35.28.28,0,0,1,.13.25v1.71c0,.1-.06.16-.19.12a4.21,4.21,0,0,0-2.17-.56c-1,0-1.33.5-1.33.91s.23.77,1.55,1.45C720.15,28.09,720.77,29,720.77,30.34Z"/><path class="cls-1" d="M708.48,19.42c-1.24,0-2.42,0-3.22.06-.1,0-.28.06-.28.15V33.06c0,.11.05.15.15.15H707c.12,0,.15,0,.15-.15v-4.8l1,0c2.82,0,5.12-1.36,5.12-4.54C713.3,21.32,711.94,19.42,708.48,19.42Zm-.26,6.87c-.5,0-.73,0-1,0V21.44c.22,0,.7,0,1.2,0,1.66,0,2.65.8,2.65,2.38C711.07,25.78,709.68,26.29,708.22,26.29Zm10,.85c-1.32-.68-1.55-1-1.55-1.45s.34-.91,1.33-.91a4.21,4.21,0,0,1,2.17.56c.13,0,.19,0,.19-.12V23.51a.28.28,0,0,0-.13-.25,5.66,5.66,0,0,0-2.23-.35c-2.19,0-3.45,1.33-3.45,2.95,0,1.43.73,2.3,2.51,3.15,1.26.65,1.55,1,1.55,1.5s-.41,1-1.4,1a4.54,4.54,0,0,1-2.51-.74c-.09-.06-.15,0-.15.1v1.84c0,.1,0,.16.1.2a5.42,5.42,0,0,0,2.56.54c2.06,0,3.59-1.08,3.59-3.08C720.77,29,720.15,28.09,718.18,27.14Zm-9.7-7.72c-1.24,0-2.42,0-3.22.06-.1,0-.28.06-.28.15V33.06c0,.11.05.15.15.15H707c.12,0,.15,0,.15-.15v-4.8l1,0c2.82,0,5.12-1.36,5.12-4.54C713.3,21.32,711.94,19.42,708.48,19.42Zm-.26,6.87c-.5,0-.73,0-1,0V21.44c.22,0,.7,0,1.2,0,1.66,0,2.65.8,2.65,2.38C711.07,25.78,709.68,26.29,708.22,26.29Zm10,.85c-1.32-.68-1.55-1-1.55-1.45s.34-.91,1.33-.91a4.21,4.21,0,0,1,2.17.56c.13,0,.19,0,.19-.12V23.51a.28.28,0,0,0-.13-.25,5.66,5.66,0,0,0-2.23-.35c-2.19,0-3.45,1.33-3.45,2.95,0,1.43.73,2.3,2.51,3.15,1.26.65,1.55,1,1.55,1.5s-.41,1-1.4,1a4.54,4.54,0,0,1-2.51-.74c-.09-.06-.15,0-.15.1v1.84c0,.1,0,.16.1.2a5.42,5.42,0,0,0,2.56.54c2.06,0,3.59-1.08,3.59-3.08C720.77,29,720.15,28.09,718.18,27.14Zm0,0c-1.32-.68-1.55-1-1.55-1.45s.34-.91,1.33-.91a4.21,4.21,0,0,1,2.17.56c.13,0,.19,0,.19-.12V23.51a.28.28,0,0,0-.13-.25,5.66,5.66,0,0,0-2.23-.35c-2.19,0-3.45,1.33-3.45,2.95,0,1.43.73,2.3,2.51,3.15,1.26.65,1.55,1,1.55,1.5s-.41,1-1.4,1a4.54,4.54,0,0,1-2.51-.74c-.09-.06-.15,0-.15.1v1.84c0,.1,0,.16.1.2a5.42,5.42,0,0,0,2.56.54c2.06,0,3.59-1.08,3.59-3.08C720.77,29,720.15,28.09,718.18,27.14Zm-9.7-7.72c-1.24,0-2.42,0-3.22.06-.1,0-.28.06-.28.15V33.06c0,.11.05.15.15.15H707c.12,0,.15,0,.15-.15v-4.8l1,0c2.82,0,5.12-1.36,5.12-4.54C713.3,21.32,711.94,19.42,708.48,19.42Zm-.26,6.87c-.5,0-.73,0-1,0V21.44c.22,0,.7,0,1.2,0,1.66,0,2.65.8,2.65,2.38C711.07,25.78,709.68,26.29,708.22,26.29Z"/><path class="cls-1" d="M842.94,12.67v27.5h-27.5V12.67h27.5m1.25-1.25h-30v30h30v-30Z"/><path class="cls-1" d="M836.35,24.9a1.78,1.78,0,0,0-.75-.13c-1.63,0-2.72,1.26-2.72,3.34,0,2.39,1.11,3.34,2.57,3.34a2.45,2.45,0,0,0,.89-.14V24.9Zm-5.81,3.32c0-3,1.94-5.38,5.13-5.38a5.75,5.75,0,0,1,.67,0V19.49a.13.13,0,0,1,.13-.13h2.09c.1,0,.13,0,.13.1V31.32a9.23,9.23,0,0,0,.06,1.27c0,.09,0,.1-.08.14a7.72,7.72,0,0,1-3.32.75C832.55,33.48,830.54,31.74,830.54,28.22Zm-4.42-2.1,3.63,7c.06.1,0,.21-.08.21h-2.26a.25.25,0,0,1-.27-.17q-1.24-2.57-2.54-5.33h0c-.78,1.74-1.63,3.63-2.46,5.34a.25.25,0,0,1-.23.14h-2.15c-.13,0-.14-.1-.08-.18l3.55-6.83-3.44-6.79a.11.11,0,0,1,.09-.19h2.23c.13,0,.19,0,.23.14.82,1.72,1.65,3.42,2.42,5.16h0c.75-1.71,1.58-3.44,2.37-5.13.06-.1.1-.17.23-.17h2.09c.1,0,.14.08.08.19Z"/><path class="cls-1" d="M30,25.92v1c0,.05,0,.11,0,.16-.05.43-.08.86-.15,1.29a10.54,10.54,0,0,1-1.47,3.87,11,11,0,0,1-4.56,4.13,10.66,10.66,0,0,1-3.52,1l-.81.09H8.92l-.16,0a9,9,0,0,1-3.06-.74A9.33,9.33,0,0,1,1,32.21,8.86,8.86,0,0,1,.09,29.3L0,28.56v-1a1.28,1.28,0,0,0,0-.16,8.83,8.83,0,0,1,.58-2.67,9.33,9.33,0,0,1,4.67-5.14,9.15,9.15,0,0,1,3.66-.95,10.16,10.16,0,0,1,1.88.09.24.24,0,0,0,.18-.06,11.11,11.11,0,0,1,3.07-2.23,10.75,10.75,0,0,1,3.53-1l.88-.09h.9l.18,0c.45.05.89.08,1.33.16A10.57,10.57,0,0,1,24.72,17a11,11,0,0,1,4.15,4.56,10.63,10.63,0,0,1,1,3.52c0,.28.06.56.09.84M13.23,19.53l0,0A12,12,0,0,1,15,20.64a.19.19,0,0,0,.16,0,6.92,6.92,0,0,1,9.21,1.58,6.55,6.55,0,0,1,1.36,5.34,6.84,6.84,0,0,1-1.66,3.52,6.7,6.7,0,0,1-6.15,2.25,6.49,6.49,0,0,1-3.86-1.92L10,27.25a1.11,1.11,0,0,0-.65-.36,1,1,0,0,0-1.08.59,1,1,0,0,0,.23,1.17c1.53,1.51,3.06,3,4.59,4.53a7.41,7.41,0,0,0,.84.72,8.05,8.05,0,0,0,3.75,1.44,9,9,0,0,0,3.19-.13,9,9,0,0,0,6.89-10.48,8.61,8.61,0,0,0-2-4.15,8.8,8.8,0,0,0-7.59-3.06,8.43,8.43,0,0,0-3.3,1,8.71,8.71,0,0,0-1.57,1m-.74,15.85-.12-.12c-.63-.59-1.26-1.18-1.88-1.78a.51.51,0,0,0-.4-.17,7.61,7.61,0,0,1-1.88-.12,5.25,5.25,0,0,1,2.08-10.28,5.09,5.09,0,0,1,2.84,1.47c1,1,2,2,2.92,2.94a.87.87,0,0,0,.78.28,1,1,0,0,0,.85-.63.94.94,0,0,0-.22-1c-1-1-2-2.09-3.08-3.08a7,7,0,0,0-7.17-1.67A7.28,7.28,0,0,0,9.44,35.39h3"/><polygon class="cls-4" points="945.5 13.3 937.03 22.62 937.34 14.16 945.5 13.3"/><polygon class="cls-4" points="937.34 14.16 931 22.62 937.03 22.62 937.34 14.16"/><polygon class="cls-4" points="945.5 39.53 931 22.62 937.03 22.62 945.5 39.53"/><polygon class="cls-4" points="953.97 22.62 937.03 22.62 945.5 13.3 953.97 22.62"/><polygon class="cls-4" points="953.97 22.62 945.5 39.53 937.03 22.62 953.97 22.62"/><polygon class="cls-4" points="953.97 22.62 945.5 13.3 953.66 14.16 953.97 22.62"/><polygon class="cls-4" points="953.66 14.16 960 22.62 953.97 22.62 953.66 14.16"/><polygon class="cls-4" points="960 22.62 945.5 39.53 953.97 22.62 960 22.62"/></svg>