<svg xmlns="http://www.w3.org/2000/svg" width="24" height="26" viewBox="0 0 24 26">
  <g id="Group_1154" data-name="Group 1154" transform="translate(-96 -14)">
    <rect id="Rectangle_3758" data-name="Rectangle 3758" width="24" height="26" transform="translate(96 14)" fill="none"/>
    <g id="Group_1147" data-name="Group 1147">
      <path id="Path_1109" data-name="Path 1109" d="M-4.285-2.141a1.108,1.108,0,0,1,.145-.578A1.03,1.03,0,0,1-3.8-3.082a1.537,1.537,0,0,1,.406-.176A1.167,1.167,0,0,1-3.039-3.3q.145.008.145.039a2.2,2.2,0,0,0,.93,1.223,3.02,3.02,0,0,0,1.648.426,2.506,2.506,0,0,0,1.488-.391,1.255,1.255,0,0,0,.543-1.078q0-1.422-1.844-1.43H-.668q-1.1,0-1.109-.8v-.125q0-.8,1.07-.8H.066a1.647,1.647,0,0,0,1.086-.32,1.08,1.08,0,0,0,.383-.875,1.111,1.111,0,0,0-.5-.961A2.391,2.391,0,0,0-.355-8.75,2.256,2.256,0,0,0-2.668-7.266q0,.031-.145.031a1.372,1.372,0,0,1-.348-.055,1.716,1.716,0,0,1-.4-.168A.913.913,0,0,1-3.9-7.809a1.1,1.1,0,0,1-.137-.559A1.86,1.86,0,0,1-2.992-9.9a4.9,4.9,0,0,1,2.676-.664,5.237,5.237,0,0,1,3.023.738,2.409,2.409,0,0,1,1.055,2.1A2.161,2.161,0,0,1,1.949-5.57,2.582,2.582,0,0,1,3.965-2.945,2.728,2.728,0,0,1,2.84-.625,5.2,5.2,0,0,1-.316.211,5.11,5.11,0,0,1-3.2-.516,2.014,2.014,0,0,1-4.285-2.141Z" transform="translate(108 33)" fill="#485057"/>
      <path id="Path_1104" data-name="Path 1104" d="M14,2A12,12,0,1,0,26,14,12,12,0,0,0,14,2Zm0,21.6A9.6,9.6,0,1,1,23.6,14,9.6,9.6,0,0,1,14,23.6Z" transform="translate(94 14)" fill="#d0d4db"/>
    </g>
  </g>
</svg>
