<svg xmlns="http://www.w3.org/2000/svg" width="24" height="26" viewBox="0 0 24 26">
  <g id="Group_1155" data-name="Group 1155" transform="translate(-136 -14)">
    <rect id="Rectangle_3759" data-name="Rectangle 3759" width="24" height="26" transform="translate(136 14)" fill="none"/>
    <g id="Group_1148" data-name="Group 1148">
      <path id="Path_1108" data-name="Path 1108" d="M-4.5-3.539v-.4A2.476,2.476,0,0,1-4-5.172L-.832-9.586A1.812,1.812,0,0,1-.113-10.3a3.3,3.3,0,0,1,1.234-.164,1.968,1.968,0,0,1,1.3.344A1.521,1.521,0,0,1,2.816-8.93V-4.32h.8a1.208,1.208,0,0,1,.781.2.813.813,0,0,1,.234.652v.078a.824.824,0,0,1-.234.66,1.208,1.208,0,0,1-.781.2h-.8V-.977q0,1.086-.992,1.086H1.613A.883.883,0,0,1,.906-.176a1.188,1.188,0,0,1-.246-.8V-2.531H-3.168a1.531,1.531,0,0,1-.969-.281A.881.881,0,0,1-4.5-3.539Zm2.078-.734H.754V-8.75Z" transform="translate(148 33)" fill="#485057"/>
      <path id="Path_1105" data-name="Path 1105" d="M14,2A12,12,0,1,0,26,14,12,12,0,0,0,14,2Zm0,21.6A9.6,9.6,0,1,1,23.6,14,9.6,9.6,0,0,1,14,23.6Z" transform="translate(134 14)" fill="#d0d4db"/>
    </g>
  </g>
</svg>
