<svg xmlns="http://www.w3.org/2000/svg" width="24" height="26" viewBox="0 0 24 26">
  <g id="Group_1153" data-name="Group 1153" transform="translate(-56 -14)">
    <rect id="Rectangle_3757" data-name="Rectangle 3757" width="24" height="26" transform="translate(56 14)" fill="none"/>
    <g id="Group_1146" data-name="Group 1146">
      <path id="Path_1110" data-name="Path 1110" d="M-3.883-1.2V-1.7a3.047,3.047,0,0,1,.27-1.289,3.045,3.045,0,0,1,.781-1.031,7.4,7.4,0,0,1,.984-.734A12.669,12.669,0,0,1-.7-5.359q.125-.062.406-.191t.41-.191l.359-.176a2.492,2.492,0,0,0,.344-.2Q.93-6.2,1.1-6.3a1.142,1.142,0,0,0,.25-.207,2.566,2.566,0,0,0,.168-.227A.8.8,0,0,0,1.633-7a1.225,1.225,0,0,0,.031-.281A1.244,1.244,0,0,0,1.211-8.3,2,2,0,0,0-.078-8.672a2.07,2.07,0,0,0-1.48.52,2.722,2.722,0,0,0-.762,1.3q-.016,0-.16.027a.84.84,0,0,1-.375-.039,4.072,4.072,0,0,1-.453-.16.866.866,0,0,1-.383-.336,1.024,1.024,0,0,1-.16-.578A2.294,2.294,0,0,1-2.8-9.777a4.62,4.62,0,0,1,2.859-.8,4.339,4.339,0,0,1,2.875.855A2.924,2.924,0,0,1,3.953-7.359,3.043,3.043,0,0,1,3.73-6.152a2.279,2.279,0,0,1-.7.895,6.534,6.534,0,0,1-.9.609,11.415,11.415,0,0,1-1.129.523q-.656.289-1.016.465a8.232,8.232,0,0,0-.773.438,2.283,2.283,0,0,0-.641.574,1.778,1.778,0,0,0-.3.711h4.7q1.117,0,1.125.883v.109Q4.1,0,2.977,0H-2.461A1.826,1.826,0,0,1-3.578-.25,1.192,1.192,0,0,1-3.883-1.2Z" transform="translate(68 33)" fill="#485057"/>
      <path id="Path_1103" data-name="Path 1103" d="M14,2A12,12,0,1,0,26,14,12,12,0,0,0,14,2Zm0,21.6A9.6,9.6,0,1,1,23.6,14,9.6,9.6,0,0,1,14,23.6Z" transform="translate(54 14)" fill="#d0d4db"/>
    </g>
  </g>
</svg>
