<svg xmlns="http://www.w3.org/2000/svg" width="24" height="26" viewBox="0 0 24 26">
  <g id="Group_1156" data-name="Group 1156" transform="translate(-176 -14)">
    <rect id="Rectangle_3760" data-name="Rectangle 3760" width="24" height="26" transform="translate(176 14)" fill="none"/>
    <g id="Group_1149" data-name="Group 1149">
      <path id="Path_1107" data-name="Path 1107" d="M-4.07-1.8a.963.963,0,0,1,.23-.609,1.732,1.732,0,0,1,.465-.426q.234-.137.266-.09A3.373,3.373,0,0,0-.25-1.539a2.481,2.481,0,0,0,1.57-.453A1.476,1.476,0,0,0,1.9-3.219a1.493,1.493,0,0,0-.535-1.23A2.371,2.371,0,0,0-.164-4.883a3.474,3.474,0,0,0-2.148.641A1.248,1.248,0,0,1-3.7-5.617V-9.039q0-1.312,1.141-1.312H2.461q1.1,0,1.1.93v.078q0,.914-1.1.914h-4.18v2.289A5.391,5.391,0,0,1,.172-6.492a4.165,4.165,0,0,1,2.781.879A2.971,2.971,0,0,1,3.992-3.219,3.066,3.066,0,0,1,2.863-.711,4.72,4.72,0,0,1-.211.211,5.484,5.484,0,0,1-3-.414Q-4.07-1.039-4.07-1.8Z" transform="translate(188 33)" fill="#485057"/>
      <path id="Path_1106" data-name="Path 1106" d="M14,2A12,12,0,1,0,26,14,12,12,0,0,0,14,2Zm0,21.6A9.6,9.6,0,1,1,23.6,14,9.6,9.6,0,0,1,14,23.6Z" transform="translate(174 14)" fill="#d0d4db"/>
    </g>
  </g>
</svg>
